<?xml version="1.0" encoding="UTF-8"?>
<!DOCTYPE svg PUBLIC "-//W3C//DTD SVG 1.1//EN" "http://www.w3.org/Graphics/SVG/1.1/DTD/svg11.dtd">
<svg viewBox="0 0 462 134" preserveAspectRatio="xMidYMid meet" xmlns="http://www.w3.org/2000/svg" version="1.1" style="shape-rendering:geometricPrecision; text-rendering:geometricPrecision; image-rendering:optimizeQuality;" xmlns:xlink="http://www.w3.org/1999/xlink">
    <g><path style="opacity:1" fill="currentColor" d="M 1.5,-0.5 C 8.16667,-0.5 14.8333,-0.5 21.5,-0.5C 27.4976,17.3235 33.9976,34.9902 41,52.5C 48.1262,34.9561 54.9595,17.2894 61.5,-0.5C 67.8333,-0.5 74.1667,-0.5 80.5,-0.5C 70.5,26.5 60.5,53.5 50.5,80.5C 44.1667,80.5 37.8333,80.5 31.5,80.5C 21.5,53.5 11.5,26.5 1.5,-0.5 Z"/></g>
    <g><path style="opacity:1" fill="currentColor" d="M 91.5,-0.5 C 97.8333,-0.5 104.167,-0.5 110.5,-0.5C 110.333,17.5031 110.5,35.5031 111,53.5C 116.082,64.7488 124.248,67.5822 135.5,62C 137.956,59.5925 139.789,56.7591 141,53.5C 141.5,35.5031 141.667,17.5031 141.5,-0.5C 147.833,-0.5 154.167,-0.5 160.5,-0.5C 160.667,16.8365 160.5,34.1699 160,51.5C 157.131,71.6993 145.465,82.0326 125,82.5C 105.622,81.123 94.6221,70.7896 92,51.5C 91.5001,34.1699 91.3334,16.8365 91.5,-0.5 Z"/></g>
    <g><path style="opacity:1" fill="currentColor" d="M 179.5,-0.5 C 197.167,-0.5 214.833,-0.5 232.5,-0.5C 232.5,4.5 232.5,9.5 232.5,14.5C 220.833,14.5 209.167,14.5 197.5,14.5C 197.5,20.1667 197.5,25.8333 197.5,31.5C 208.167,31.5 218.833,31.5 229.5,31.5C 229.5,36.5 229.5,41.5 229.5,46.5C 218.833,46.5 208.167,46.5 197.5,46.5C 197.5,52.5 197.5,58.5 197.5,64.5C 209.322,65.4951 221.322,65.8284 233.5,65.5C 233.5,70.5 233.5,75.5 233.5,80.5C 215.5,80.5 197.5,80.5 179.5,80.5C 179.5,53.5 179.5,26.5 179.5,-0.5 Z"/></g>
    <g><path style="opacity:1" fill="currentColor" d="M 258.5,4.5 C 319.833,4.5 381.167,4.5 442.5,4.5C 442.5,10.8333 442.5,17.1667 442.5,23.5C 381.167,23.5 319.833,23.5 258.5,23.5C 258.5,17.1667 258.5,10.8333 258.5,4.5 Z"/></g>
    <g><path style="opacity:1" fill="currentColor" d="M 288.5,49.5 C 299.653,48.0403 309.986,50.207 319.5,56C 325.643,61.453 328.643,68.2864 328.5,76.5C 322.5,76.5 316.5,76.5 310.5,76.5C 309.849,67.7274 305.016,63.7274 296,64.5C 287.466,64.233 283.8,68.233 285,76.5C 286.558,78.3589 288.391,79.8589 290.5,81C 298.212,83.2281 305.879,85.5614 313.5,88C 326.33,92.8254 331.497,101.992 329,115.5C 325.674,125.929 318.508,131.762 307.5,133C 293.52,136.219 281.353,133.052 271,123.5C 267.465,118.394 265.631,112.727 265.5,106.5C 271.5,106.5 277.5,106.5 283.5,106.5C 283.966,111.809 286.633,115.643 291.5,118C 296.589,118.826 301.589,118.492 306.5,117C 309.683,115.982 311.016,113.815 310.5,110.5C 310.596,108.074 309.93,105.907 308.5,104C 297.816,99.9992 287.149,95.9992 276.5,92C 269.498,87.6648 266.165,81.3315 266.5,73C 267.483,59.1842 274.817,51.3509 288.5,49.5 Z"/></g>
    <g><path style="opacity:1" fill="currentColor" d="M 443.5,101.5 C 450.255,100.877 456.588,101.544 462.5,103.5C 457.555,118.943 447.222,128.777 431.5,133C 398.672,137.007 381.005,122.507 378.5,89.5C 382.44,60.3511 399.107,47.1844 428.5,50C 446.455,53.4587 457.789,63.9587 462.5,81.5C 456.158,81.6662 449.825,81.4995 443.5,81C 437.691,69.4968 428.357,64.8301 415.5,67C 398.74,74.0373 393.573,86.204 400,103.5C 406.603,115.288 416.436,119.121 429.5,115C 436.649,113.017 441.316,108.517 443.5,101.5 Z"/></g>
    <g><path style="opacity:1" fill="currentColor" d="M 345.5,50.5 C 351.5,50.5 357.5,50.5 363.5,50.5C 363.5,77.8333 363.5,105.167 363.5,132.5C 357.5,132.5 351.5,132.5 345.5,132.5C 345.5,105.167 345.5,77.8333 345.5,50.5 Z"/></g>
    <g><path style="opacity:1" fill="currentColor" d="M 197.5,64.5 C 209.833,64.5 222.167,64.5 234.5,64.5C 234.821,70.0262 234.488,75.3595 233.5,80.5C 233.5,75.5 233.5,70.5 233.5,65.5C 221.322,65.8284 209.322,65.4951 197.5,64.5 Z"/></g>
    <g><path style="opacity:1" fill="currentColor" d="M 443.5,101.5 C 449.979,100.509 456.646,100.176 463.5,100.5C 463.737,101.791 463.404,102.791 462.5,103.5C 456.588,101.544 450.255,100.877 443.5,101.5 Z"/></g>
    <g><path style="opacity:1" fill="currentColor" d="M 49.5,111.5 C 110.833,111.5 172.167,111.5 233.5,111.5C 233.5,117.833 233.5,124.167 233.5,130.5C 172.167,130.5 110.833,130.5 49.5,130.5C 49.5,124.167 49.5,117.833 49.5,111.5 Z"/></g>
    <g><path style="opacity:1" fill="currentColor" d="M 49.5,111.5 C 49.5,117.833 49.5,124.167 49.5,130.5C 110.833,130.5 172.167,130.5 233.5,130.5C 172.002,131.499 110.336,131.832 48.5,131.5C 48.176,124.646 48.5093,117.979 49.5,111.5 Z"/></g>
</svg>
